<mxfile host="app.diagrams.net" modified="2023-11-30T00:16:37.034Z" agent="Mozilla/5.0 (Windows NT 10.0; Win64; x64) AppleWebKit/537.36 (KHTML, like Gecko) Chrome/119.0.0.0 Safari/537.36" version="22.1.5" etag="P8ktonT_8vjMKIFZaXJL" type="github">
  <diagram name="Страница — 1" id="vDLCCtPQh6UlIRQRzDaB">
    <mxGraphModel>
      <root>
        <mxCell id="0" />
        <mxCell id="1" parent="0" />
      </root>
    </mxGraphModel>
  </diagram>
</mxfile>
